<svg xmlns="http://www.w3.org/2000/svg" width="45" height="59"><path fill="#3B4262" d="M44 32.4l-.8-.8c-2-2-5.5-2.5-8-1.1l-5.3 3 1-24.4a3.7 3.7 0 00-5-3.5l.2-1.4c0-2-1.7-3.7-3.8-3.7-2 0-3.6 1.4-3.8 3.3l-3.4 20.7c0 .3-.6.3-.6.1L10.5 8a3.7 3.7 0 00-3.6-2.7c-1.1 0-2.1.5-2.8 1.4a3.6 3.6 0 00-.7 3l.8 3.4a3.3 3.3 0 00-1.4.2 3.4 3.4 0 00-2.3 3.8L2.9 31c0 5.4 1 9.4 1.8 11.8a13.6 13.6 0 01.6 4.3c0 1.3-.1 2.5-.5 3.8L3 57.2c0 .4 0 .8.2 1.1.3.3.6.5 1 .5h22a1.2 1.2 0 001.1-1.6s-1-3.2 0-7.4c1.2-1 5.5-4.5 7-5.9 2.6-2.3 9.6-9.5 9.9-9.8a1.2 1.2 0 000-1.7z"/></svg>