<svg xmlns="http://www.w3.org/2000/svg" width="49" height="59"><path fill="#3B4262" d="M47.1 11.8a3 3 0 00-1.2-.2c-.6 0-1 .3-1.3.7-1.6 2.2-3 6.5-4 9.9a47 47 0 01-1.6 4.7c-.5-2.8 0-13.1.3-17v-.1c.1-2.8.2-3.3.1-3.5-.2-1.5-.8-2.5-1.8-3-1-.4-2.2-.2-3.6.6-.6.4-.8 1.9-1.4 8.2-.3 3.6-1 11.6-2 13-1-2-2.4-12.6-3-17.2l-.8-5.7C26.4 1.1 24.9.1 23.5 0c-1.3 0-2.3.6-2.7 1.6-1 1-.6 4.3.4 12.1.4 3.8 1.4 11.4.8 12.3-1.2-.1-3.3-5-6.2-14.3-.8-2.6-1-3.4-1.3-3.8-.5-1.2-2.2-2-3.7-2a3.2 3.2 0 00-.4 0c-.8.2-2.6 1-2.2 4.3 1 4.6 2.2 8 3.3 11.3v.1l2 6c1.3 4.8.8 7.9.8 8 0 .2-.1.4-.3.5a.6.6 0 01-.2 0c-.4 0-1-.2-1.4-.4-.8-1.5-4.7-8.6-8.2-9.5H4c-1.3 0-2.2.5-2.8 1.4-1 1.3-.5 3-.5 3.3l.1.1s2.8 5.2 3.3 7.6c.3 2 2.3 4.2 3.8 6H8l1.3 1.6C13.8 51 21 55 21 55c1 .7 1.4 1.3 1.5 1.9a.8.8 0 01-.2.6l-.2.1 1 1L42 57l.8-3.6c2.5-10.4 2-19.3 2-19.4l1.2-6a211 211 0 002.8-13.9c.1-1-.5-2-1.7-2.4z"/></svg>