<svg xmlns="http://www.w3.org/2000/svg" width="63" height="60"><path fill="#3B4262" d="M49.5 2.1c3.2-2 6.3-2.4 8.7-1.2 5.4 2.7 4.6 12.8 2.4 17.2a11 11 0 01-6.5 5.4 30 30 0 01-5 9.8 7.9 7.9 0 005 1.8l3.1-3a2 2 0 012.8 0c.7.8.7 2 0 2.7l-.3.3h.6c1 0 2 .9 2 2 0 1-1 1.8-2 1.8h-.6l.3.3c.7.8.7 2 0 2.7a2 2 0 01-2.8 0l-3-3H54a11.8 11.8 0 01-7.7-2.8L45 37c-3.7 3-8.3 4.7-13.6 5.2a12 12 0 01.3 6.3l2.3 3.8a2 2 0 01-.6 2.7 2 2 0 01-1 .3 2 2 0 01-1.7-.9l-.2-.3-.1.6a2 2 0 01-2 1.5 2 2 0 01-.3 0 2 2 0 01-1.5-2.4v-.6l-.2.2a2 2 0 01-2.7-.6 2 2 0 01.5-2.7l3.7-2.4a8 8 0 00-.7-5.4 44.8 44.8 0 01-4.8-.4 9.7 9.7 0 00-8 2c-5.6 5.1-6.7 14.1-6.7 14.2a2 2 0 01-2 1.8 2 2 0 01-1.6-.9c0-.1-2.1-3.2-3-7.6-1.3-6 .2-11.4 4.2-15.8a20.7 20.7 0 018.8-5.6l-.4.1a8 8 0 00-3.4-.7h-.1l-3 3a2 2 0 01-1.4.5 2 2 0 01-1.4-.6 1.9 1.9 0 010-2.7l.3-.2h-.6c-1.1 0-2-.9-2-2 0-1 .9-1.9 2-1.9h.6l-.3-.2a1.9 1.9 0 010-2.8 2 2 0 012.8 0l3 3a11.9 11.9 0 018.7 3.7l-.2-.2a23 23 0 015.4.1c5 .7 9 0 12.1-2a12.2 12.2 0 01-2.7-7.7v-.1l-3-3.1a2 2 0 010-2.8 1.9 1.9 0 012.7 0l.3.2v-.6c0-1 .9-2 2-2s1.8 1 1.8 2v.6l.3-.2a1.9 1.9 0 012.7 0c1.2 1.2.4 2.5 0 2.8l-3 3v.2c0 1.8.7 3.6 1.8 5 1.4-1.6 2.5-3.7 3.3-6.3a12 12 0 01.9-9.8 18 18 0 016-6.3z"/></svg>