<svg xmlns="http://www.w3.org/2000/svg" width="304" height="270"><defs><linearGradient id="a" x1="50%" x2="50%" y1="0%" y2="100%"><stop offset="0%" stop-color="#FFF" stop-opacity=".1"/><stop offset="100%" stop-color="#FFF" stop-opacity="0"/></linearGradient><linearGradient id="b" x1="50%" x2="50%" y1="0%" y2="100%"><stop offset="0%" stop-color="#FFF" stop-opacity=".1"/><stop offset="100%" stop-color="#FFF" stop-opacity="0"/></linearGradient></defs><g fill="none" fill-rule="evenodd"><ellipse cx="53.2" cy="54.8" fill="#B1B4C5" rx="53.2" ry="54.8"/><ellipse cx="53.2" cy="52.4" fill="url(#a)" rx="53.2" ry="52.4"/><g transform="translate(12.4 12.4)"><ellipse cx="40.8" cy="41" fill="#E1E4ED" rx="40.8" ry="41"/><path fill="#8A90AC" fill-rule="nonzero" d="M56.7 30.4a2.1 2.1 0 00-1-.1c-.3 0-.7.2-.9.5-1.1 1.6-2.1 4.8-2.9 7.3-.3 1.2-.8 2.7-1.2 3.5-.3-2.1 0-9.7.2-12.7.2-2 .2-2.4.1-2.6-.1-1-.6-1.8-1.3-2.1-.7-.4-1.6-.2-2.6.4-.5.3-.6 1.3-1 6-.3 2.7-.8 8.6-1.5 9.6-.7-1.4-1.8-9.3-2.2-12.7l-.6-4.2c-.3-.9-1.4-1.6-2.5-1.6a2 2 0 00-2 1.2c-.6.7-.4 3.1.4 9 .3 2.7 1 8.4.6 9-1 0-2.5-3.6-4.6-10.6-.6-2-.8-2.5-1-2.8-.3-.8-1.6-1.5-2.7-1.5a2.3 2.3 0 00-.2 0c-.6.2-2 .7-1.6 3.2.7 3.4 1.6 6 2.4 8.4l1.4 4.5c1 3.6.6 5.8.6 5.9 0 .2 0 .3-.2.4a.4.4 0 01-.1 0c-.4 0-.8-.2-1-.3-.7-1.1-3.5-6.3-6-7L25 41c-1 .1-1.7.5-2.1 1-.7 1-.4 2.3-.3 2.6 0 0 2 3.9 2.4 5.6.3 1.5 1.7 3.2 2.8 4.5h.1l1 1.2c3.3 3.5 8.5 6.4 8.5 6.4.7.5 1 1 1.1 1.4a.6.6 0 01-.1.4l-.1.2.7.7 13.8-1 .6-2.7A54.9 54.9 0 0055 46.9l.9-4.4c.8-3.8 1.8-8.5 2-10.3.1-.8-.4-1.5-1.2-1.8z"/></g><g transform="translate(196)"><ellipse cx="53.7" cy="54.8" fill="#B1B4C5" rx="53.7" ry="54.8"/><ellipse cx="53.7" cy="52.4" fill="url(#b)" rx="53.7" ry="52.4"/><g transform="translate(12.5 12.4)"><ellipse cx="41.2" cy="41" fill="#E1E4ED" rx="41.2" ry="41"/><path fill="#8A90AC" fill-rule="nonzero" d="M30.5 40.7l4.4-6.2a9 9 0 00-8 2.4c-4.4 4.3-6.2 13.8-6.6 16l11.2 11.2c2-.2 10.9-1.4 19.5-10 0-.1 2.1-1.6.4-3.3-.8-.9-2.1-.8-3 0a1 1 0 01-1.5 0 1 1 0 010-1.5l3-3c1.6-1.5.2-4.1-2-3.5l-2.5 2.1a1 1 0 01-1.5 0 1 1 0 01.2-1.6c8.6-7.5 7.4-6.6 13-11.8 2-1.8-.6-4.8-2.7-3L41 40.4a1 1 0 01-1.4 0c-.4-.4-.5-1-.2-1.4l9.4-14.5c1.4-1.9-1.3-4-2.7-2L32 41.8a1 1 0 01-1.4.2 1 1 0 01-.2-1.4z"/></g></g><g transform="translate(98 160)"><ellipse cx="53.7" cy="54.8" fill="#B1B4C5" rx="53.7" ry="54.8"/><ellipse cx="53.7" cy="52.4" fill="url(#b)" rx="53.7" ry="52.4"/><g transform="translate(12.5 12.4)"><ellipse cx="41.2" cy="41" fill="#E1E4ED" rx="41.2" ry="41"/><path fill="#8A90AC" fill-rule="nonzero" d="M57.2 35.1c-.5-6-7.2-5.3-7.2-5.3-2.9-5-7.3-1.4-7.3-1.4-3.4-5-7.7-.4-7.7-.4-7.4-.8-7 5.3-7 5.3-.3 1.9 1 7.8 1 7.8-1.1-3.4-3.5-.6-3.5-.6-3 4.5-.7 7-.7 7C28.8 52 37 57.7 37 57.7c3 1.7 1.8 3.3 1.8 3.3l18.4-3 .4-3.6c2.8-8.4-.5-19.3-.5-19.3z"/></g></g><text fill="#B1B4C5" font-family="BarlowSemiCondensed-Bold, Barlow Semi Condensed" font-size="13" font-style="condensed" font-weight="bold"><tspan x="134" y="31">BEATS</tspan></text><text fill="#B1B4C5" font-family="BarlowSemiCondensed-Bold, Barlow Semi Condensed" font-size="13" font-style="condensed" font-weight="bold"><tspan x="40" y="147">BEATS</tspan></text><text fill="#B1B4C5" font-family="BarlowSemiCondensed-Bold, Barlow Semi Condensed" font-size="13" font-style="condensed" font-weight="bold"><tspan x="235" y="147">BEATS</tspan></text><g fill="#B1B4C5" transform="matrix(-1 0 0 1 177 39)"><rect width="50" height="4" y="10" rx="2"/><path d="M42 2l8.6 8.7c.7.8.7 2 0 2.7a1.8 1.8 0 01-2.7 0l-8.6-8.8a1.9 1.9 0 010-2.6A1.8 1.8 0 0142 2z"/><path d="M39.4 19.4l8.5-8.7a1.8 1.8 0 012.6 0c.8.7.8 1.8 0 2.6L42 22a1.8 1.8 0 01-2.6 0 1.9 1.9 0 010-2.6z"/></g><g fill="#B1B4C5" transform="scale(1 -1) rotate(-55 -82.6 -131.2)"><rect width="50" height="4" y="10" rx="2"/><path d="M42 2l8.6 8.7c.7.8.7 2 0 2.7a1.8 1.8 0 01-2.7 0l-8.6-8.8a1.9 1.9 0 010-2.6A1.8 1.8 0 0142 2z"/><path d="M39.4 19.4l8.5-8.7a1.8 1.8 0 012.6 0c.8.7.8 1.8 0 2.6L42 22a1.8 1.8 0 01-2.6 0 1.9 1.9 0 010-2.6z"/></g><g fill="#B1B4C5" transform="rotate(-55 240 -103.7)"><rect width="50" height="4" y="10" rx="2"/><path d="M42 2l8.6 8.7c.7.8.7 2 0 2.7a1.8 1.8 0 01-2.7 0l-8.6-8.8a1.9 1.9 0 010-2.6A1.8 1.8 0 0142 2z"/><path d="M39.4 19.4l8.5-8.7a1.8 1.8 0 012.6 0c.8.7.8 1.8 0 2.6L42 22a1.8 1.8 0 01-2.6 0 1.9 1.9 0 010-2.6z"/></g></g></svg>