<svg xmlns="http://www.w3.org/2000/svg" width="336" height="330"><defs><linearGradient id="a" x1="50%" x2="50%" y1="0%" y2="100%"><stop offset="0%" stop-color="#FFF" stop-opacity=".1"/><stop offset="100%" stop-color="#FFF" stop-opacity="0"/></linearGradient></defs><g fill="none" fill-rule="evenodd"><g transform="translate(233 92)"><ellipse cx="51.5" cy="50.2" fill="#B1B4C5" rx="51.5" ry="50.2"/><ellipse cx="51.5" cy="50.2" fill="url(#a)" rx="51.5" ry="50.2"/><g transform="translate(12 11.9)"><ellipse cx="39.5" cy="39.3" fill="#E1E4ED" rx="39.5" ry="39.3"/><path fill="#8A90AC" fill-rule="nonzero" d="M54.9 29.1a2 2 0 00-.9-.1c-.4 0-.7.2-.9.5-1.1 1.5-2 4.6-2.8 7-.4 1.1-.8 2.6-1.2 3.3-.3-2 0-9.3.2-12v-.1l.1-2.5c-.1-1-.6-1.8-1.3-2-.6-.4-1.5-.2-2.5.3-.5.3-.6 1.3-1 5.8-.2 2.5-.8 8.3-1.4 9.2-.7-1.3-1.7-8.9-2.2-12.2l-.6-4c-.2-.8-1.3-1.5-2.3-1.6a2 2 0 00-2 1.2c-.6.7-.3 3 .4 8.6.3 2.6 1 8 .6 8.7-1-.1-2.4-3.5-4.5-10.2-.5-1.8-.7-2.4-.9-2.6-.3-.9-1.5-1.5-2.6-1.5h-.3c-.5.2-1.8.7-1.5 3 .7 3.4 1.5 5.8 2.3 8.1l1.4 4.3c1 3.5.6 5.6.6 5.6 0 .3-.1.4-.2.4a.4.4 0 01-.2 0l-1-.2c-.5-1.1-3.3-6.1-5.8-6.8h-.1c-1 0-1.6.4-2 1-.7 1-.4 2.1-.3 2.4 0 0 2 3.7 2.3 5.4.3 1.5 1.7 3 2.8 4.3l1 1.1c3.1 3.4 8.2 6.2 8.3 6.2.6.5 1 1 1 1.3a.6.6 0 01-.1.4l-.1.1.7.7 13.3-1 .6-2.5A52 52 0 0053.2 45l1-4.3c.7-3.7 1.7-8.2 1.9-9.9 0-.7-.4-1.4-1.2-1.7z"/></g></g><g transform="translate(0 92)"><ellipse cx="51.5" cy="52.5" fill="#B1B4C5" rx="51.5" ry="52.5"/><ellipse cx="51.5" cy="50.2" fill="url(#a)" rx="51.5" ry="50.2"/><g transform="translate(12 11.9)"><ellipse cx="39.5" cy="39.3" fill="#E1E4ED" rx="39.5" ry="39.3"/><path fill="#8A90AC" fill-rule="nonzero" d="M57 42.3l-.6-.6a4.8 4.8 0 00-5.7-.7L47 43l.8-17.4a2.7 2.7 0 00-2.7-2.6c-.3 0-.6 0-.9.2l.1-1c0-1.4-1.2-2.6-2.7-2.6-1.4 0-2.5 1-2.7 2.3l-2.4 14.7c0 .2-.4.2-.4 0L33 25a2.6 2.6 0 00-2.4-1.9c-.8 0-1.5.4-2 1a2.5 2.5 0 00-.5 2.2l.5 2.3a2.4 2.4 0 00-1 .2 2.4 2.4 0 00-1.6 2.7l1.7 9.7c0 3.8.7 6.7 1.3 8.4a9.6 9.6 0 01.1 5.7L27.8 60a.9.9 0 00.8 1.1h15.6A.9.9 0 0045 60s-.7-2.2 0-5.3c.9-.7 4-3.1 5-4.1l7-7a.9.9 0 000-1.2z"/></g></g><g transform="translate(117)"><ellipse cx="51.5" cy="52.5" fill="#B1B4C5" rx="51.5" ry="52.5"/><ellipse cx="51.5" cy="50.2" fill="url(#a)" rx="51.5" ry="50.2"/><g transform="translate(12 11.9)"><ellipse cx="39.5" cy="39.3" fill="#E1E4ED" rx="39.5" ry="39.3"/><path fill="#8A90AC" fill-rule="nonzero" d="M29.2 39l4.3-6c-1.8-.3-5-.4-7.7 2.3-4.2 4.2-6 13.2-6.3 15.4l10.7 10.6c2-.1 10.5-1.2 18.7-9.4 0-.2 2-1.7.4-3.3a2 2 0 00-2.8 0 1 1 0 01-1.5 0 1 1 0 010-1.4l3-2.9a2 2 0 00-2-3.3l-2.4 2a1 1 0 01-1.4 0 1 1 0 010-1.5c8.4-7.3 7.2-6.4 12.5-11.4 2-1.6-.5-4.5-2.5-2.9L39.3 38.8a1 1 0 01-1.3 0c-.4-.4-.4-1-.2-1.3l9-14c1.4-1.7-1.2-3.7-2.6-2L30.9 40.2a1 1 0 01-1.5.3 1 1 0 01-.2-1.4z"/></g></g><g transform="translate(187 225)"><ellipse cx="51.5" cy="52.5" fill="#B1B4C5" rx="51.5" ry="52.5"/><ellipse cx="51.5" cy="50.2" fill="url(#a)" rx="51.5" ry="50.2"/><g transform="translate(12 11.9)"><ellipse cx="39.5" cy="39.3" fill="#E1E4ED" rx="39.5" ry="39.3"/><path fill="#8A90AC" fill-rule="nonzero" d="M54.9 33.7c-.5-5.8-7-5.2-7-5.2-2.7-4.8-7-1.3-7-1.3-3.2-4.7-7.3-.4-7.3-.4-7-.7-6.8 5-6.8 5-.2 1.9 1 7.6 1 7.6-1-3.3-3.3-.6-3.3-.6-2.8 4.3-.7 6.7-.7 6.7a71.3 71.3 0 0011.8 9.7c3 1.7 1.7 3.2 1.7 3.2l17.7-3 .4-3.3c2.7-8-.5-18.4-.5-18.4z"/></g></g><g transform="translate(46 225)"><ellipse cx="51.5" cy="52.5" fill="#B1B4C5" rx="51.5" ry="52.5"/><ellipse cx="51.5" cy="50.2" fill="url(#a)" rx="51.5" ry="50.2"/><g transform="translate(12 11.9)"><ellipse cx="39.5" cy="39.3" fill="#E1E4ED" rx="39.5" ry="39.3"/><path fill="#8A90AC" fill-rule="nonzero" d="M52.3 21.5c2.3-1.4 4.5-1.7 6.2-.8 3.8 1.9 3.3 9 1.7 12.2-.9 1.7-2.4 3-4.6 3.8-.9 2.7-2 5-3.6 7a5.6 5.6 0 003.6 1.2l2.2-2a1.4 1.4 0 012 0 1.4 1.4 0 010 1.8l-.2.2h.4c.8 0 1.4.6 1.4 1.4 0 .7-.6 1.4-1.4 1.4h-.4l.2.1a1.4 1.4 0 010 2 1.4 1.4 0 01-2 0l-2.1-2.1h-.1a8.4 8.4 0 01-5.5-2 16 16 0 01-1 .7c-2.6 2-5.8 3.3-9.6 3.6.5 1.4.6 3 .3 4.5l1.6 2.7a1.4 1.4 0 01-.4 2 1.4 1.4 0 01-2-.5v-.2l-.2.4a1.4 1.4 0 01-1.6 1 1.4 1.4 0 01-1.1-1.6v-.4l-.1.1c-.7.4-1.6.2-2-.4a1.4 1.4 0 01.5-2L37 54a5.7 5.7 0 00-.5-4 31.8 31.8 0 01-3.4-.2 7 7 0 00-5.7 1.5c-4 3.6-4.7 10-4.7 10a1.4 1.4 0 01-1.4 1.3 1.4 1.4 0 01-1.1-.6c0-.1-1.6-2.3-2.2-5.4-.9-4.3.2-8.1 3-11.2a14.7 14.7 0 016.2-4H27a5.7 5.7 0 00-2.4-.5L22.3 43a1.4 1.4 0 01-2 0 1.3 1.3 0 010-1.9l.2-.2h-.4c-.8 0-1.4-.6-1.4-1.3 0-.8.6-1.4 1.4-1.4h.4l-.1-.2a1.3 1.3 0 010-2 1.4 1.4 0 012 0l2 2.2h.1c2.4 0 4.6 1 6.2 2.6l-.2-.1a16.3 16.3 0 013.8 0c3.6.5 6.4 0 8.6-1.4a8.7 8.7 0 01-1.9-5.5L39 31.6a1.4 1.4 0 010-2 1.3 1.3 0 012 0l.1.2v-.5c0-.7.6-1.4 1.4-1.4.7 0 1.4.7 1.4 1.4v.5l.1-.2a1.3 1.3 0 012 0c.8.8.2 1.7 0 2l-2.1 2.2c0 1.4.4 2.6 1.2 3.7a13 13 0 002.4-4.6c-.4-1.1-1-3.8.6-7 .8-1.6 2.5-3.3 4.3-4.4z"/></g></g><g fill="#B1B4C5" transform="rotate(-40 152.2 -62.8)"><rect width="32.7" height="2.7" y="6.7" rx="1.3"/><path d="M27.4 1.3l5.7 5.9c.4.4.4 1.2 0 1.7a1.2 1.2 0 01-1.8 0l-5.6-5.8a1.2 1.2 0 010-1.8 1.2 1.2 0 011.7 0z"/><path d="M25.7 13L31.3 7a1.2 1.2 0 011.7 0c.5.5.5 1.3 0 1.7l-5.6 5.9a1.2 1.2 0 01-1.7 0 1.2 1.2 0 010-1.8z"/></g><g fill="#B1B4C5" transform="scale(1 -1) rotate(-40 11.9 -344)"><rect width="32.7" height="2.7" y="6.7" rx="1.3"/><path d="M27.4 1.3l5.7 5.9c.4.4.4 1.2 0 1.7a1.2 1.2 0 01-1.8 0l-5.6-5.8a1.2 1.2 0 010-1.8 1.2 1.2 0 011.7 0z"/><path d="M25.7 13L31.3 7a1.2 1.2 0 011.7 0c.5.5.5 1.3 0 1.7l-5.6 5.9a1.2 1.2 0 01-1.7 0 1.2 1.2 0 010-1.8z"/></g><g fill="#B1B4C5" transform="rotate(127 100.6 180.6)"><rect width="32.7" height="2.7" y="6.7" rx="1.3"/><path d="M27.4 1.3l5.7 5.9c.4.4.4 1.2 0 1.7a1.2 1.2 0 01-1.8 0l-5.6-5.8a1.2 1.2 0 010-1.8 1.2 1.2 0 011.7 0z"/><path d="M25.7 13L31.3 7a1.2 1.2 0 011.7 0c.5.5.5 1.3 0 1.7l-5.6 5.9a1.2 1.2 0 01-1.7 0 1.2 1.2 0 010-1.8z"/></g><g fill="#B1B4C5" transform="matrix(-1 0 0 1 186 297)"><rect width="32.7" height="2.7" y="6.7" rx="1.3"/><path d="M27.4 1.3l5.7 5.9c.4.4.4 1.2 0 1.7a1.2 1.2 0 01-1.8 0l-5.6-5.8a1.2 1.2 0 010-1.8 1.2 1.2 0 011.7 0z"/><path d="M25.7 13L31.3 7a1.2 1.2 0 011.7 0c.5.5.5 1.3 0 1.7l-5.6 5.9a1.2 1.2 0 01-1.7 0 1.2 1.2 0 010-1.8z"/></g><g fill="#B1B4C5" transform="scale(-1 1) rotate(-53 195.6 178.2)"><rect width="32.7" height="2.7" y="6.7" rx="1.3"/><path d="M27.4 1.3l5.7 5.9c.4.4.4 1.2 0 1.7a1.2 1.2 0 01-1.8 0l-5.6-5.8a1.2 1.2 0 010-1.8 1.2 1.2 0 011.7 0z"/><path d="M25.7 13L31.3 7a1.2 1.2 0 011.7 0c.5.5.5 1.3 0 1.7l-5.6 5.9a1.2 1.2 0 01-1.7 0 1.2 1.2 0 010-1.8z"/></g><g fill="#B1B4C5"><g transform="matrix(-1 0 0 1 212 131)"><rect width="85" height="2.7" x=".7" y="6.7" rx="1.3"/><path d="M80.4 1.3l5.7 5.9c.4.4.4 1.2 0 1.7a1.2 1.2 0 01-1.8 0l-5.6-5.8a1.2 1.2 0 010-1.8 1.2 1.2 0 011.7 0z"/><path d="M78.7 13L84.3 7a1.2 1.2 0 011.7 0c.5.5.5 1.3 0 1.7l-5.6 5.9a1.2 1.2 0 01-1.7 0 1.2 1.2 0 010-1.8z"/></g><text font-family="BarlowSemiCondensed-Bold, Barlow Semi Condensed" font-size="6" font-style="condensed" font-weight="bold" transform="translate(124 131)"><tspan x="36" y="14">BEATS</tspan></text><g transform="rotate(40 -169.5 247.6)"><rect width="85" height="2.7" x=".7" y="6.7" rx="1.3"/><path d="M80.4 1.3l5.7 5.9c.4.4.4 1.2 0 1.7a1.2 1.2 0 01-1.8 0l-5.6-5.8a1.2 1.2 0 010-1.8 1.2 1.2 0 011.7 0z"/><path d="M78.7 13L84.3 7a1.2 1.2 0 011.7 0c.5.5.5 1.3 0 1.7l-5.6 5.9a1.2 1.2 0 01-1.7 0 1.2 1.2 0 010-1.8z"/></g><text font-family="BarlowSemiCondensed-Bold, Barlow Semi Condensed" font-size="6" font-style="condensed" font-weight="bold" transform="rotate(40 -161.3 250.6)"><tspan x="36" y="6">BEATS</tspan></text><g transform="rotate(-40 381.5 -93)"><rect width="85" height="2.7" x=".7" y="6.7" rx="1.3"/><path d="M80.4 1.3l5.7 5.9c.4.4.4 1.2 0 1.7a1.2 1.2 0 01-1.8 0l-5.6-5.8a1.2 1.2 0 010-1.8 1.2 1.2 0 011.7 0z"/><path d="M78.7 13L84.3 7a1.2 1.2 0 011.7 0c.5.5.5 1.3 0 1.7l-5.6 5.9a1.2 1.2 0 01-1.7 0 1.2 1.2 0 010-1.8z"/></g><text font-family="BarlowSemiCondensed-Bold, Barlow Semi Condensed" font-size="6" font-style="condensed" font-weight="bold" transform="rotate(-40 373.3 -90)"><tspan x="36" y="6">BEATS</tspan></text><g transform="rotate(-110 176.9 32)"><rect width="85" height="2.7" x=".7" y="6.7" rx="1.3"/><path d="M80.4 1.3l5.7 5.9c.4.4.4 1.2 0 1.7a1.2 1.2 0 01-1.8 0l-5.6-5.8a1.2 1.2 0 010-1.8 1.2 1.2 0 011.7 0z"/><path d="M78.7 13L84.3 7a1.2 1.2 0 011.7 0c.5.5.5 1.3 0 1.7l-5.6 5.9a1.2 1.2 0 01-1.7 0 1.2 1.2 0 010-1.8z"/></g><text font-family="BarlowSemiCondensed-Bold, Barlow Semi Condensed" font-size="6" font-style="condensed" font-weight="bold" transform="rotate(-110 174.8 35)"><tspan x="36" y="6">BEATS</tspan></text><g><g transform="rotate(110 35.1 118.8)"><rect width="85" height="2.7" x=".7" y="6.7" rx="1.3"/><path d="M80.4 1.3l5.7 5.9c.4.4.4 1.2 0 1.7a1.2 1.2 0 01-1.8 0l-5.6-5.8a1.2 1.2 0 010-1.8 1.2 1.2 0 011.7 0z"/><path d="M78.7 13L84.3 7a1.2 1.2 0 011.7 0c.5.5.5 1.3 0 1.7l-5.6 5.9a1.2 1.2 0 01-1.7 0 1.2 1.2 0 010-1.8z"/></g><text font-family="BarlowSemiCondensed-Bold, Barlow Semi Condensed" font-size="6" font-style="condensed" font-weight="bold" transform="rotate(110 37.2 121.8)"><tspan x="36" y="6">BEATS</tspan></text></g></g><text fill="#B1B4C5" font-family="BarlowSemiCondensed-Bold, Barlow Semi Condensed" font-size="11" font-style="condensed" font-weight="bold"><tspan x="252" y="64">BEATS</tspan></text><text fill="#B1B4C5" font-family="BarlowSemiCondensed-Bold, Barlow Semi Condensed" font-size="11" font-style="condensed" font-weight="bold"><tspan x="55" y="64">BEATS</tspan></text><text fill="#B1B4C5" font-family="BarlowSemiCondensed-Bold, Barlow Semi Condensed" font-size="11" font-style="condensed" font-weight="bold"><tspan x="305" y="225">BEATS</tspan></text><text fill="#B1B4C5" font-family="BarlowSemiCondensed-Bold, Barlow Semi Condensed" font-size="11" font-style="condensed" font-weight="bold"><tspan x="1" y="225">BEATS</tspan></text><text fill="#B1B4C5" font-family="BarlowSemiCondensed-Bold, Barlow Semi Condensed" font-size="11" font-style="condensed" font-weight="bold"><tspan x="154" y="328">BEATS</tspan></text></g></svg>