<svg xmlns="http://www.w3.org/2000/svg" xmlns:xlink="http://www.w3.org/1999/xlink" width="115" height="114"><defs><filter id="a" width="111%" height="111.1%" x="-5.5%" y="-2.8%" filterUnits="objectBoundingBox"><feOffset dy="3" in="SourceAlpha" result="shadowOffsetOuter1"/><feGaussianBlur in="shadowOffsetOuter1" result="shadowBlurOuter1" stdDeviation="1.5"/><feColorMatrix in="shadowBlurOuter1" values="0 0 0 0 0 0 0 0 0 0 0 0 0 0 0 0 0 0 0.196705638 0"/></filter><path id="b" d="M37.1 42a.3.3 0 00.2-.1.3.3 0 00.1-.2V34l.2-.1h1.9l2.8 7.8c0 .2.2.3.4.3h3.4c.2 0 .3 0 .3-.3l-3.2-8.1v-.2a4.8 4.8 0 002.3-2 6.6 6.6 0 000-6.2 5 5 0 00-2-2c-.8-.6-1.7-.8-2.8-.8h-6.9a.3.3 0 00-.2.1.3.3 0 00-.1.2V42a.3.3 0 00.3.1h3.3zm3-11.1h-2.5c-.1 0-.2 0-.2-.2V26l.2-.1H40c.7 0 1.3.2 1.7.7.4.4.6 1 .6 1.8s-.2 1.4-.6 1.9c-.4.4-1 .7-1.7.7zm14.7 11.4c1.3 0 2.5-.3 3.5-.8a5.6 5.6 0 002.3-2.2c.5-1 .8-2.1.8-3.4v-7.4c0-1.3-.3-2.4-.8-3.3a5.6 5.6 0 00-2.3-2.2c-1-.6-2.2-.8-3.5-.8-1.2 0-2.4.2-3.4.8a5.6 5.6 0 00-2.2 2.2c-.6 1-.8 2-.8 3.3v7.4c0 1.3.2 2.4.8 3.4a5.6 5.6 0 002.2 2.2c1 .5 2.2.8 3.4.8zm0-3.4c-.7 0-1.3-.3-1.8-.8s-.7-1.2-.7-2v-7.7c0-.9.2-1.6.7-2 .5-.6 1-.8 1.8-.8s1.5.2 2 .7c.4.5.6 1.2.6 2v7.8c0 .8-.2 1.5-.7 2-.4.5-1 .8-1.9.8zm15.3 3.3c1.3 0 2.4-.2 3.3-.7a5.4 5.4 0 002.3-2.1c.5-1 .8-2 .8-3.2a.3.3 0 00-.1-.3.3.3 0 00-.2-.1l-3.3-.2c-.2 0-.4.1-.4.4v.3c0 .8-.2 1.4-.6 1.9-.5.4-1 .6-1.8.6s-1.4-.2-1.8-.6c-.5-.5-.7-1.1-.7-1.9v-8.2c0-.8.2-1.4.7-1.8.4-.5 1-.7 1.8-.7.7 0 1.3.2 1.8.7.4.4.6 1 .6 1.8v.4c0 .2.2.3.4.3l3.3-.2a.3.3 0 00.2 0 .4.4 0 000-.3V28a6 6 0 00-.7-3.1 5.4 5.4 0 00-2.3-2c-1-.6-2-.8-3.3-.8s-2.4.2-3.4.7a5.4 5.4 0 00-2.2 2.2c-.6.9-.8 2-.8 3.2V36c0 1.2.2 2.3.8 3.2a5.4 5.4 0 002.2 2.2c1 .5 2.1.7 3.4.7zm12.5-.2a.3.3 0 00.3-.1.3.3 0 000-.2V36a.4.4 0 01.1-.2l1.3-1.8V34h.2l4 7.7c0 .2.2.3.3.3h3.6c.2 0 .3 0 .3-.2a.4.4 0 000-.2L87.2 31a.3.3 0 010-.2l5.2-8v-.3l-.3-.1h-3.6a.4.4 0 00-.4.2l-5 7.6v.1l-.1-.1v-7.5a.3.3 0 00-.1-.2.3.3 0 00-.3-.1h-3.3a.3.3 0 00-.2.1.3.3 0 000 .2V42a.3.3 0 00.2.1h3.3zM37 64a.3.3 0 00.3-.1.3.3 0 000-.2v-7.3l.2-.2h3a6 6 0 003-.7 5 5 0 002-2c.5-1 .7-2 .7-3.1 0-1.2-.2-2.2-.7-3.1a5.2 5.2 0 00-2-2.2c-.9-.5-1.9-.7-3-.7h-6.8a.3.3 0 00-.2 0 .3.3 0 00-.1.3v19l.1.2a.3.3 0 00.2.1H37zM40 53.1h-2.4l-.2-.1v-5c0-.2.1-.2.2-.2h2.4c.7 0 1.3.2 1.7.7.5.5.7 1.2.7 2s-.2 1.4-.7 1.9c-.4.5-1 .7-1.7.7zM51.2 64c.1 0 .3 0 .3-.3l.7-2.7.1-.1h5.4l.6 2.8c0 .2.2.3.4.3h3.4c.2 0 .3 0 .3-.3l-5-19c0-.2-.2-.3-.4-.3h-4c-.3 0-.4 0-.5.3l-5 19c0 .2 0 .3.3.3h3.4zm5.6-6.2H53a.2.2 0 01-.2 0v-.2l1.9-8v-.2l.2.1 1.9 8.1v.2a.2.2 0 01-.1 0zM68 64a.3.3 0 00.3-.1.3.3 0 000-.2v-7.3l.2-.2h3a6 6 0 003-.7 5 5 0 002-2c.5-1 .7-2 .7-3.1 0-1.2-.2-2.2-.7-3.1a5.2 5.2 0 00-2-2.2c-.8-.5-1.8-.7-3-.7h-6.7a.3.3 0 00-.3 0 .3.3 0 000 .3V64a.3.3 0 00.3.1H68zM71 53.1h-2.4l-.1-.1v-5l.1-.2H71c.7 0 1.3.2 1.7.7.5.5.7 1.2.7 2s-.2 1.4-.7 1.9c-.4.5-1 .7-1.7.7zm20 10.9a.3.3 0 00.3-.1.3.3 0 00.1-.2v-2.8a.3.3 0 000-.2.3.3 0 00-.3 0h-7.5l-.2-.2V56c0-.1 0-.2.2-.2H88a.3.3 0 00.3 0 .3.3 0 000-.3v-2.7a.3.3 0 000-.3.3.3 0 00-.3 0h-4.6l-.2-.2v-4.4l.2-.1H91a.3.3 0 00.2-.1.3.3 0 00.1-.2v-2.8a.3.3 0 000-.2.3.3 0 00-.3-.1H79.7a.3.3 0 00-.2.1.3.3 0 00-.1.2V64a.3.3 0 00.3.1H91zm6.4 0a.3.3 0 00.2-.1.3.3 0 00.1-.2V56l.2-.1h1.9l2.8 7.8c0 .2.2.3.4.3h3.4c.2 0 .3 0 .3-.3l-3.2-8.1v-.2a4.8 4.8 0 002.3-2 6.6 6.6 0 000-6.2 5 5 0 00-2-2c-.8-.6-1.7-.8-2.8-.8H94a.3.3 0 00-.2.1.3.3 0 00-.1.2V64a.3.3 0 00.3.1h3.3zm3-11.1h-2.5c-.1 0-.2 0-.2-.2V48l.2-.1h2.4c.7 0 1.3.2 1.7.7.4.4.6 1 .6 1.8s-.2 1.4-.6 1.9c-.4.4-1 .7-1.7.7zm-61 33.3c2 0 3.5-.5 4.6-1.5a5 5 0 001.8-4c0-1-.2-1.8-.7-2.5a5.7 5.7 0 00-1.5-1.6L41 75l-.6-.3-2.1-1.1c-.5-.3-.8-.6-1-1a1.9 1.9 0 01-.4-1c0-.7.2-1.2.6-1.5.4-.4.9-.5 1.6-.5.8 0 1.4.2 1.9.6.4.5.7 1 .7 1.7v.8a.3.3 0 00.3 0h3.2a.3.3 0 00.3 0 .3.3 0 000-.3V72c0-1.2-.2-2.1-.8-3a5.4 5.4 0 00-2.2-2c-1-.5-2.1-.7-3.4-.7-1.2 0-2.2.2-3.2.6a5 5 0 00-2.1 2c-.5.7-.8 1.7-.8 2.8 0 1 .3 2 .8 2.7a6.7 6.7 0 001.8 1.9l2.7 1.6 2 1c.5.3.8.6 1 1 .3.3.4.6.4 1 0 .6-.1 1.1-.5 1.5-.4.3-1 .5-1.7.5-.8 0-1.5-.2-2-.6a2.1 2.1 0 01-.7-1.7V80a.3.3 0 000-.2.3.3 0 00-.3-.1h-3.2a.3.3 0 00-.3 0 .3.3 0 000 .3v.7c0 1.1.2 2 .7 3 .6.7 1.3 1.4 2.3 1.8 1 .5 2 .7 3.4.7zm14.8 0c1.3 0 2.4-.2 3.4-.7a5.4 5.4 0 002.2-2.1c.6-1 .8-2 .8-3.2a.3.3 0 000-.3.3.3 0 00-.3-.1l-3.3-.2c-.2 0-.3.1-.3.4v.3c0 .8-.2 1.4-.7 1.9-.4.4-1 .6-1.8.6-.7 0-1.3-.2-1.8-.6-.4-.5-.6-1.1-.6-1.9v-8.2c0-.8.2-1.4.6-1.8.5-.5 1-.7 1.8-.7s1.4.2 1.8.7c.5.4.7 1 .7 1.8v.4c0 .2.1.3.3.3l3.3-.2a.3.3 0 00.2 0 .4.4 0 00.1-.3V72a6 6 0 00-.8-3.1 5.4 5.4 0 00-2.2-2c-1-.6-2.1-.8-3.4-.8s-2.4.2-3.3.7a5.4 5.4 0 00-2.3 2.2c-.5.9-.8 2-.8 3.2V80c0 1.2.3 2.3.8 3.2a5.4 5.4 0 002.3 2.2c1 .5 2 .7 3.3.7zm12.6-.2a.3.3 0 00.2-.1.3.3 0 00.1-.2v-19a.3.3 0 00-.1-.2.3.3 0 00-.2-.1h-3.3a.3.3 0 00-.2.1.3.3 0 00-.1.2V86a.3.3 0 00.3.1h3.3zm9.1.2c2 0 3.5-.5 4.6-1.5a5 5 0 001.7-4c0-1-.2-1.8-.6-2.5a5.7 5.7 0 00-1.5-1.6c-.6-.5-1.5-1-2.6-1.6l-.5-.3-2.2-1.1c-.4-.3-.8-.6-1-1a1.9 1.9 0 01-.3-1c0-.7.1-1.2.5-1.5.4-.4 1-.5 1.6-.5.8 0 1.4.2 2 .6.4.5.6 1 .6 1.7v.5l.1.3a.3.3 0 00.3 0h3.2a.3.3 0 00.2 0 .3.3 0 00.1-.3V72c0-1.2-.3-2.1-.8-3a5.4 5.4 0 00-2.3-2c-1-.5-2-.7-3.3-.7-1.2 0-2.3.2-3.2.6a5 5 0 00-2.2 2c-.5.7-.7 1.7-.7 2.8 0 1 .2 2 .7 2.7a6.7 6.7 0 001.8 1.9l2.8 1.6 2 1c.5.3.8.6 1 1 .3.3.4.6.4 1 0 .6-.2 1.1-.6 1.5-.4.3-1 .5-1.6.5-.9 0-1.5-.2-2-.6a2.1 2.1 0 01-.7-1.7V80a.3.3 0 00-.1-.2.3.3 0 00-.3-.1h-3.2a.3.3 0 00-.2 0 .3.3 0 00-.1.3v.7c0 1.1.2 2 .8 3 .5.7 1.3 1.4 2.2 1.8 1 .5 2.1.7 3.4.7zm14.6 0c1.9 0 3.4-.5 4.6-1.5a5 5 0 001.7-4c0-1-.2-1.8-.6-2.5a5.7 5.7 0 00-1.6-1.6L92 75l-.6-.3-2.1-1.1c-.5-.3-.8-.6-1-1a1.9 1.9 0 01-.4-1c0-.7.2-1.2.6-1.5.4-.4.9-.5 1.6-.5.8 0 1.4.2 1.9.6.4.5.7 1 .7 1.7v.8a.3.3 0 00.3 0h3.2a.3.3 0 00.3 0 .3.3 0 000-.3V72c0-1.2-.2-2.1-.7-3a5.4 5.4 0 00-2.3-2c-1-.5-2-.7-3.3-.7-1.2 0-2.3.2-3.2.6a5 5 0 00-2.2 2c-.5.7-.8 1.7-.8 2.8 0 1 .3 2 .8 2.7a6.7 6.7 0 001.8 1.9l2.7 1.6 2 1c.5.3.9.6 1.1 1 .2.2.4.6.4 1 0 .6-.2 1.1-.6 1.5-.4.3-1 .5-1.7.5-.8 0-1.5-.2-2-.6a2.1 2.1 0 01-.7-1.7V80a.3.3 0 000-.2.3.3 0 00-.3-.1h-3.2a.3.3 0 00-.3 0 .3.3 0 000 .3v.7c0 1.1.2 2 .7 3 .6.7 1.3 1.4 2.3 1.8 1 .5 2 .7 3.4.7zm14.8 0c1.3 0 2.4-.2 3.4-.7a5.6 5.6 0 002.3-2.2c.6-1 .8-2.1.8-3.4v-7.4c0-1.3-.2-2.4-.8-3.3a5.6 5.6 0 00-2.3-2.2c-1-.6-2-.8-3.4-.8-1.3 0-2.4.2-3.4.8a5.6 5.6 0 00-2.3 2.2c-.5 1-.8 2-.8 3.3v7.4c0 1.3.3 2.4.8 3.4a5.6 5.6 0 002.3 2.2c1 .5 2.1.8 3.4.8zm0-3.3c-.7 0-1.4-.3-1.8-.8-.5-.5-.7-1.2-.7-2v-7.7c0-.9.2-1.6.7-2 .4-.6 1-.8 1.8-.8s1.4.2 1.9.7c.5.5.7 1.2.7 2v7.8c0 .8-.2 1.5-.7 2-.5.5-1.1.8-1.9.8zM118 86a.3.3 0 00.2-.1.3.3 0 00.1-.2V78l.2-.1h1.9l2.8 7.8c0 .2.2.3.4.3h3.4c.2 0 .3 0 .3-.3l-3.2-8.1v-.2a4.8 4.8 0 002.3-2 6.6 6.6 0 000-6.2 5 5 0 00-2-2c-.8-.6-1.8-.8-2.9-.8h-6.8a.3.3 0 00-.2.1.3.3 0 00-.1.2V86a.3.3 0 00.3.1h3.3zm2.9-11.1h-2.4c-.1 0-.2 0-.2-.2V70l.2-.1h2.4c.7 0 1.3.2 1.7.7.4.4.6 1 .6 1.8s-.2 1.4-.6 1.9c-.4.4-1 .7-1.7.7zm14.6 11.3c1.9 0 3.4-.5 4.5-1.5a5 5 0 001.8-4c0-1-.2-1.8-.7-2.5a5.7 5.7 0 00-1.5-1.6l-2.5-1.6-.6-.3-2.1-1.1c-.5-.3-.8-.6-1-1a1.9 1.9 0 01-.4-1c0-.7.2-1.2.6-1.5.4-.4.9-.5 1.6-.5.8 0 1.4.2 1.9.6.4.5.7 1 .7 1.7v.8a.3.3 0 00.3 0h3.2a.3.3 0 00.2 0 .3.3 0 00.1-.3V72c0-1.2-.2-2.2-.8-3a5.4 5.4 0 00-2.2-2c-1-.5-2.1-.7-3.4-.7-1.2 0-2.2.2-3.2.6a5 5 0 00-2.1 2c-.5.7-.8 1.7-.8 2.8 0 1 .3 2 .8 2.7a6.7 6.7 0 001.8 1.9l2.7 1.6 2 1c.5.3.8.6 1 1 .3.2.4.6.4 1 0 .6-.2 1.1-.5 1.5-.4.3-1 .5-1.7.5-.8 0-1.5-.2-2-.6a2.1 2.1 0 01-.7-1.7V80a.3.3 0 000-.2.3.3 0 00-.3-.1h-3.2a.3.3 0 00-.3 0 .3.3 0 000 .3v.7c0 1.1.2 2 .7 3 .5.7 1.3 1.4 2.3 1.8 1 .5 2 .7 3.4.7zM45 108a.3.3 0 00.2-.1.3.3 0 00.1-.2v-2.8a.3.3 0 000-.2.3.3 0 00-.3 0h-7.5l-.2-.2V88.7a.3.3 0 000-.2.3.3 0 00-.3-.1h-3.3a.3.3 0 00-.2.1.3.3 0 00-.1.2V108a.3.3 0 00.3.1h11.3zm6 0a.3.3 0 00.2-.1.3.3 0 00.1-.2v-19a.3.3 0 000-.2.3.3 0 00-.3-.1h-3.3a.3.3 0 00-.2.1.3.3 0 00-.1.2V108a.3.3 0 00.3.1H51zm14.1 0a.3.3 0 00.3-.1.3.3 0 000-.2v-2.8a.3.3 0 000-.2.3.3 0 00-.3 0H58v-.3l7.5-12.3a.8.8 0 000-.4v-3a.3.3 0 000-.2.3.3 0 00-.3-.1H54a.3.3 0 00-.2.1.3.3 0 00-.1.2v3a.3.3 0 00.3 0h7.2c.1 0 .2.1.1.3l-7.5 12.3a.8.8 0 00-.1.4v3.2a.3.3 0 00.3.1h11.3zm5.5 0c.2 0 .3 0 .4-.3l.6-2.7.2-.1h5.3l.7 2.8c0 .2.2.3.4.3h3.4c.2 0 .3 0 .3-.3l-5-19c-.1-.2-.2-.3-.5-.3h-4c-.2 0-.3 0-.4.3l-5 19c-.1.2 0 .3.2.3h3.4zm5.6-6.2h-3.7l-.1-.2 1.9-8v-.2l.1.1 2 8.1v.2a.2.2 0 01-.2 0zm11.4 6.2a.3.3 0 00.2-.1.3.3 0 00.1-.2V100l.2-.1H90l2.8 7.8c0 .2.2.3.4.3h3.4c.2 0 .3 0 .3-.3l-3.2-8.1v-.2a4.8 4.8 0 002.3-2 6.6 6.6 0 000-6.2 5 5 0 00-2-2c-.8-.6-1.8-.8-2.9-.8h-6.8a.3.3 0 00-.2.1.3.3 0 00-.1.2V108a.3.3 0 00.3.1h3.3zm2.9-11.1h-2.4c-.1 0-.2 0-.2-.2V92l.2-.1h2.4c.7 0 1.3.2 1.7.7.4.4.6 1 .6 1.8s-.2 1.4-.6 1.9c-.4.4-1 .7-1.7.7zm15 11.1c1.3 0 2.4-.2 3.4-.7a5.2 5.2 0 003-5v-8.2c0-1.2-.3-2.2-.8-3s-1.3-1.5-2.2-2c-1-.5-2.1-.7-3.4-.7h-6a.3.3 0 00-.2.1.3.3 0 00-.1.2V108a.3.3 0 00.3.1h6zm-2.2-3.4l-.2-.1V91.9l.2-.1h2.3c.7 0 1.2.2 1.7.7.4.5.6 1.2.6 2v7.4a3 3 0 01-.7 2c-.4.4-1 .7-1.6.7h-2.3zm-64 25.6c1.9 0 3.4-.5 4.5-1.5a5 5 0 001.8-4c0-1-.2-1.8-.7-2.5a5.7 5.7 0 00-1.5-1.6L41 119l-.6-.3-2.1-1.1c-.5-.3-.8-.6-1-1a1.9 1.9 0 01-.4-1c0-.7.2-1.2.6-1.5.4-.4.9-.5 1.6-.5.8 0 1.4.2 1.9.6.4.5.7 1 .7 1.7v.8a.3.3 0 00.3 0h3.2a.3.3 0 00.3 0 .3.3 0 000-.3v-.5c0-1.2-.2-2.1-.8-3a5.4 5.4 0 00-2.2-2c-1-.5-2.1-.7-3.4-.7-1.2 0-2.2.2-3.2.6a5 5 0 00-2.1 2c-.5.7-.8 1.7-.8 2.8 0 1 .3 2 .8 2.7a6.7 6.7 0 001.8 1.9l2.7 1.6 2 1c.5.3.8.6 1 1 .3.3.4.6.4 1 0 .6-.1 1.1-.5 1.5-.4.3-1 .5-1.7.5-.8 0-1.5-.2-2-.6a2.1 2.1 0 01-.7-1.7v-.5a.3.3 0 000-.2.3.3 0 00-.3-.1h-3.2a.3.3 0 00-.3 0 .3.3 0 000 .3v.7c0 1.1.2 2 .7 3 .6.7 1.3 1.4 2.3 1.8 1 .5 2 .7 3.4.7zm12.2-.2a.3.3 0 00.2-.1.3.3 0 00.1-.2v-7.3l.1-.2h3a6 6 0 003-.7 5 5 0 002-2 6.7 6.7 0 000-6.2 5.2 5.2 0 00-2-2.2c-.8-.5-1.8-.7-3-.7h-6.7a.3.3 0 00-.2 0 .3.3 0 00-.1.3V130a.3.3 0 00.3.1h3.3zm2.8-10.9H52V114v-.2h2.4c.8 0 1.3.2 1.8.7.4.5.6 1.2.6 2s-.2 1.4-.6 1.9c-.5.5-1 .7-1.8.7zm14.7 11.2c1.3 0 2.4-.3 3.4-.8a5.6 5.6 0 002.3-2.2c.5-1 .8-2.1.8-3.4v-7.4c0-1.3-.3-2.4-.8-3.3a5.6 5.6 0 00-2.3-2.2c-1-.6-2.1-.8-3.4-.8-1.3 0-2.4.2-3.4.8a5.6 5.6 0 00-2.3 2.2c-.6 1-.8 2-.8 3.3v7.4c0 1.3.2 2.4.8 3.4a5.6 5.6 0 002.3 2.2c1 .5 2 .8 3.4.8zm0-3.4c-.8 0-1.4-.3-1.9-.8-.4-.5-.7-1.2-.7-2v-7.7c0-.9.3-1.6.7-2 .5-.6 1.1-.8 1.9-.8.8 0 1.4.2 1.8.7.5.5.7 1.2.7 2v7.8c0 .8-.2 1.5-.7 2-.4.5-1 .8-1.8.8zm15.2 3.3c1.3 0 2.4-.2 3.4-.7a5.4 5.4 0 002.2-2.1c.6-1 .8-2 .8-3.2a.3.3 0 000-.3.3.3 0 00-.3-.1l-3.3-.2c-.2 0-.3.1-.3.4v.3c0 .8-.3 1.4-.7 1.9-.5.4-1 .6-1.8.6-.7 0-1.3-.2-1.8-.6-.4-.5-.7-1.1-.7-1.9v-8.2c0-.8.3-1.4.7-1.8.5-.5 1-.7 1.8-.7s1.3.2 1.8.7c.4.4.7 1 .7 1.8v.4c0 .2 0 .3.3.3l3.3-.2a.3.3 0 00.2 0 .4.4 0 00.1-.3v-.2a6 6 0 00-.8-3.1 5.4 5.4 0 00-2.2-2c-1-.6-2.1-.8-3.4-.8s-2.4.2-3.4.7a5.4 5.4 0 00-2.2 2.2c-.5.9-.8 2-.8 3.2v7.8c0 1.2.3 2.3.8 3.2a5.4 5.4 0 002.2 2.2c1 .5 2.1.7 3.4.7zm12.5-.2a.3.3 0 00.3-.1.3.3 0 000-.2V124a.4.4 0 01.1-.2l1.3-1.8.1-.1h.1l4 7.7c0 .2.2.3.4.3h3.5c.3 0 .4 0 .4-.2a.4.4 0 00-.1-.2l-5.5-10.6a.3.3 0 010-.2l5.2-8v-.3l-.2-.1h-3.6a.4.4 0 00-.4.2l-5 7.6-.1.1-.1-.1v-7.5a.3.3 0 00-.1-.2.3.3 0 00-.3-.1h-3.2a.3.3 0 00-.3.1.3.3 0 000 .2V130a.3.3 0 00.3.1h3.2z"/></defs><g fill="none" transform="translate(-30 -22)"><use fill="#000" filter="url(#a)" xlink:href="#b"/><use fill="#FFF" xlink:href="#b"/></g></svg>