<svg xmlns="http://www.w3.org/2000/svg" xmlns:xlink="http://www.w3.org/1999/xlink" width="162" height="99"><defs><filter id="a" width="107.7%" height="112.9%" x="-3.9%" y="-3.2%" filterUnits="objectBoundingBox"><feOffset dy="3" in="SourceAlpha" result="shadowOffsetOuter1"/><feGaussianBlur in="shadowOffsetOuter1" result="shadowBlurOuter1" stdDeviation="1.5"/><feColorMatrix in="shadowBlurOuter1" values="0 0 0 0 0 0 0 0 0 0 0 0 0 0 0 0 0 0 0.196705638 0"/></filter><path id="b" d="M39.3 56a.5.5 0 00.3-.1.5.5 0 00.2-.4V44.6c0-.1 0-.2.2-.2h2.5l.2.2 4 11c.1.3.3.4.6.4h4.9c.3 0 .4-.1.4-.4a.4.4 0 000-.2L48 44l.1-.3a6.9 6.9 0 003.2-2.8 8.5 8.5 0 001.1-4.5c0-1.6-.3-3-1-4.4a7.2 7.2 0 00-2.8-3c-1.3-.6-2.7-1-4.2-1h-9.8a.5.5 0 00-.3.1.5.5 0 00-.2.4v27c0 .2 0 .3.2.4l.3.1h4.7zm4.1-16H40l-.2-.1V33s0-.2.2-.2h3.4c1 0 1.8.4 2.4 1s1 1.6 1 2.7c0 1-.3 2-1 2.6s-1.4 1-2.4 1zm21.2 16.4c1.9 0 3.5-.4 5-1.2a8 8 0 003.2-3.1c.8-1.4 1.2-3 1.2-4.8V36.7c0-1.8-.4-3.4-1.2-4.7a8 8 0 00-3.3-3.2c-1.4-.7-3-1.1-4.9-1.1-1.8 0-3.4.4-4.8 1.1a8 8 0 00-3.3 3.2c-.8 1.3-1.1 2.9-1.1 4.7v10.6c0 1.8.3 3.4 1.1 4.8a8 8 0 003.3 3.1c1.4.8 3 1.2 4.8 1.2zm0-4.9c-1 0-2-.3-2.6-1a4 4 0 01-1-3v-11c0-1.2.3-2.1 1-2.9.7-.7 1.5-1 2.6-1 1.2 0 2 .3 2.7 1 .7.8 1 1.7 1 3v11a4 4 0 01-1 2.8c-.6.8-1.5 1.1-2.7 1.1zm21.8 4.8c1.8 0 3.4-.3 4.8-1a7.7 7.7 0 003.2-3 8.8 8.8 0 001.2-4.6v-.1a.5.5 0 00-.2-.3.5.5 0 00-.3-.2l-4.7-.2c-.3 0-.5.2-.5.5v.5c0 1-.3 2-1 2.6-.6.7-1.4 1-2.5 1s-2-.3-2.6-1c-.6-.7-1-1.5-1-2.6V36.2c0-1.1.4-2 1-2.7.7-.6 1.5-1 2.6-1s2 .4 2.6 1c.6.7 1 1.6 1 2.7v.5c0 .3 0 .4.4.4l4.7-.2a.4.4 0 00.3-.1.5.5 0 00.2-.4v-.2c0-1.7-.4-3.2-1.2-4.5a7.7 7.7 0 00-3.2-3c-1.4-.7-3-1-4.8-1-1.8 0-3.4.3-4.8 1a7.7 7.7 0 00-3.2 3.1 9 9 0 00-1.2 4.6v11.1c0 1.8.4 3.3 1.2 4.7a7.7 7.7 0 003.2 3c1.4.8 3 1.1 4.8 1.1zm18-.3a.5.5 0 00.3-.1.5.5 0 00.1-.4v-8-.2l1.9-2.6.1-.1h.2l5.6 11c.2.3.4.4.6.4h5.1c.3 0 .5-.1.5-.3a.6.6 0 00-.1-.3l-7.9-15a.5.5 0 010-.4l7.4-11.4c.1-.2.2-.3.1-.4l-.4-.2h-5.1a.6.6 0 00-.6.3L105 39.2s0 .1-.1 0h-.1V28.4a.5.5 0 00-.1-.4.5.5 0 00-.4-.1h-4.7a.5.5 0 00-.3.1.5.5 0 00-.1.4v27l.1.4.3.1h4.7zM39.1 88a.5.5 0 00.3-.1.5.5 0 00.1-.4V77.1l.2-.2h4.4c1.6 0 3-.3 4.2-1a7.2 7.2 0 002.9-3c.7-1.2 1-2.7 1-4.3 0-1.7-.3-3.2-1-4.5a7.4 7.4 0 00-2.9-3c-1.2-.8-2.6-1.1-4.2-1.1h-9.7a.5.5 0 00-.4.1.5.5 0 00-.1.3v27.1l.1.4.4.1h4.7zm4-15.6h-3.4s-.2 0-.2-.2V65l.2-.2h3.4c1 0 2 .4 2.5 1a4 4 0 011 2.9c0 1.1-.3 2-1 2.7-.6.7-1.4 1-2.5 1zM59.4 88c.2 0 .4-.1.5-.4l.9-4h7.9l.9 4c0 .3.3.4.6.4H75c.3 0 .5-.1.5-.4v-.1l-7.3-27.1c0-.3-.2-.4-.5-.4h-5.8c-.3 0-.5.1-.6.4l-7.2 27c0 .4 0 .6.4.6h4.9zm8-8.8H62a.3.3 0 01-.2-.1v-.2l2.7-11.6v-.1l.2.1L67.6 79v.2a.3.3 0 01-.2 0zm16 8.8a.5.5 0 00.4-.1.5.5 0 00.2-.4V77.1c0-.1 0-.2.2-.2h4.3c1.6 0 3-.3 4.2-1a7.2 7.2 0 003-3c.6-1.2 1-2.7 1-4.3 0-1.7-.4-3.2-1-4.5a7.4 7.4 0 00-3-3c-1.2-.8-2.6-1.1-4.2-1.1h-9.7a.5.5 0 00-.3.1.5.5 0 00-.2.3v27.1c0 .2 0 .3.2.4l.3.1h4.7zm4.2-15.6h-3.4c-.2 0-.2 0-.2-.2V65s0-.2.2-.2h3.4c1 0 1.8.4 2.5 1a4 4 0 01.9 2.9c0 1.1-.3 2-1 2.7-.6.7-1.4 1-2.4 1zM116.2 88a.5.5 0 00.4-.1.5.5 0 00.1-.4v-3.9a.5.5 0 00-.1-.3.5.5 0 00-.4-.1h-10.7l-.2-.2v-6.5c0-.1 0-.2.2-.2h6.7a.5.5 0 00.3-.1.5.5 0 00.2-.4V72a.5.5 0 00-.2-.4.5.5 0 00-.3-.1h-6.7c-.1 0-.2 0-.2-.2V65s0-.2.2-.2h10.7a.5.5 0 00.4-.1.5.5 0 00.1-.3v-4a.5.5 0 00-.1-.3.5.5 0 00-.4-.1h-16a.5.5 0 00-.4.1.5.5 0 00-.1.4v27l.1.4.4.1h16zm9 0a.5.5 0 00.4-.1.5.5 0 00.2-.4V76.6c0-.1 0-.2.2-.2h2.5l.2.2 4 11c.1.3.3.4.6.4h4.9c.3 0 .4-.1.4-.4a.4.4 0 000-.2L134 76l.1-.3a6.9 6.9 0 003.2-2.8 8.5 8.5 0 001.1-4.5c0-1.6-.3-3-1-4.4a7.2 7.2 0 00-2.8-3c-1.3-.6-2.7-1-4.2-1h-9.8a.5.5 0 00-.3.1.5.5 0 00-.2.4v27c0 .2 0 .3.2.4l.3.1h4.7zm4.2-16H126l-.2-.1V65s0-.2.2-.2h3.4c1 0 1.8.4 2.4 1s1 1.6 1 2.7c0 1-.3 2-1 2.6s-1.4 1-2.4 1zm-86.9 48.3c2.7 0 5-.7 6.6-2.1a7.3 7.3 0 002.4-5.8c0-1.4-.3-2.5-.9-3.5a8.1 8.1 0 00-2.1-2.4l-3.7-2.2-.8-.5a38 38 0 01-3-1.6 5 5 0 01-1.5-1.3c-.3-.4-.5-1-.5-1.6 0-.9.3-1.5.8-2 .6-.5 1.3-.8 2.3-.8 1.1 0 2 .3 2.7 1 .7.6 1 1.4 1 2.4v.7l.1.3.4.2h4.6a.5.5 0 00.3-.2.5.5 0 00.2-.3v-.8a7.8 7.8 0 00-4.4-7.1c-1.4-.7-3-1-4.8-1-1.7 0-3.2.3-4.6 1a7.2 7.2 0 00-3 2.6 7.4 7.4 0 00-1.2 4 7 7 0 001.1 4c.7 1.1 1.6 2 2.6 2.7a34 34 0 004 2.2l2.8 1.6c.7.4 1.2.8 1.5 1.3a2.7 2.7 0 01-.3 3.6c-.5.5-1.3.8-2.4.8a4 4 0 01-2.8-1 3 3 0 01-1-2.3v-.8a.5.5 0 00-.2-.3.5.5 0 00-.3-.1h-4.6a.5.5 0 00-.3.1.5.5 0 00-.2.3v1a7.5 7.5 0 004.4 6.9c1.4.7 3 1 4.8 1zm21.1 0c1.8 0 3.4-.3 4.8-1a7.7 7.7 0 003.2-3 8.8 8.8 0 001.2-4.6v-.1a.5.5 0 00-.2-.3.5.5 0 00-.3-.2l-4.7-.2c-.3 0-.5.2-.5.5v.5c0 1-.3 2-1 2.6-.6.7-1.4 1-2.5 1s-2-.3-2.6-1c-.6-.7-1-1.5-1-2.6v-11.7c0-1.1.4-2 1-2.7.7-.6 1.5-1 2.6-1s2 .4 2.6 1c.6.7 1 1.6 1 2.7v.5c0 .3 0 .4.4.4l4.7-.2a.4.4 0 00.3-.1.5.5 0 00.2-.4v-.2c0-1.7-.4-3.2-1.2-4.5a7.7 7.7 0 00-3.2-3c-1.4-.7-3-1-4.8-1-1.8 0-3.4.3-4.8 1a7.7 7.7 0 00-3.2 3.1 9 9 0 00-1.2 4.6v11.1c0 1.8.4 3.3 1.2 4.7a7.7 7.7 0 003.2 3c1.4.8 3 1.1 4.8 1.1zm18-.3a.5.5 0 00.3-.1.5.5 0 00.1-.4v-27a.5.5 0 00-.1-.4.5.5 0 00-.4-.1h-4.7a.5.5 0 00-.3.1.5.5 0 00-.1.4v27l.1.4.3.1h4.7zm13 .3c2.7 0 4.9-.7 6.5-2.1a7.3 7.3 0 002.5-5.8c0-1.4-.3-2.5-.9-3.5a8.1 8.1 0 00-2.2-2.4l-3.6-2.2-.8-.5a38 38 0 01-3-1.6 5 5 0 01-1.5-1.3c-.4-.4-.5-1-.5-1.6 0-.9.3-1.5.8-2s1.3-.8 2.3-.8c1.1 0 2 .3 2.7 1 .6.6 1 1.4 1 2.4v.7l.1.3.4.2h4.6a.5.5 0 00.3-.2.5.5 0 00.1-.3v-.8c0-1.6-.3-3-1.1-4.2a7.8 7.8 0 00-3.3-2.9c-1.3-.7-3-1-4.7-1-1.7 0-3.2.3-4.6 1a7.2 7.2 0 00-3 2.6 7.4 7.4 0 00-1.2 4 7 7 0 001.1 4c.7 1.1 1.6 2 2.6 2.7a34 34 0 004 2.2l2.8 1.6c.6.4 1.1.8 1.5 1.3a2.7 2.7 0 01-.3 3.6c-.6.5-1.4.8-2.4.8a4 4 0 01-2.8-1 3 3 0 01-1-2.3v-.8a.5.5 0 00-.2-.3.5.5 0 00-.3-.1h-4.6a.5.5 0 00-.4.1.5.5 0 00-.1.3v1c0 1.6.4 3 1.1 4.2a7.5 7.5 0 003.3 2.7c1.3.7 3 1 4.8 1zm20.8 0c2.7 0 4.9-.7 6.5-2.1a7.3 7.3 0 002.5-5.8c0-1.4-.3-2.5-.9-3.5a8.1 8.1 0 00-2.2-2.4l-3.6-2.2-.8-.5a38 38 0 01-3-1.6 5 5 0 01-1.5-1.3c-.4-.4-.5-1-.5-1.6 0-.9.3-1.5.8-2s1.3-.8 2.3-.8c1.1 0 2 .3 2.7 1 .6.6 1 1.4 1 2.4v.7l.1.3.4.2h4.6a.5.5 0 00.3-.2.5.5 0 00.1-.3v-.8c0-1.6-.3-3-1.1-4.2a7.8 7.8 0 00-3.3-2.9c-1.3-.7-3-1-4.7-1-1.7 0-3.2.3-4.6 1a7.2 7.2 0 00-3 2.6 7.4 7.4 0 00-1.2 4 7 7 0 001.1 4c.7 1.1 1.6 2 2.6 2.7a34 34 0 004 2.2l2.8 1.6c.6.4 1.1.8 1.5 1.3a2.7 2.7 0 01-.3 3.6c-.6.5-1.4.8-2.4.8a4 4 0 01-2.8-1 3 3 0 01-1-2.3v-.8a.5.5 0 00-.2-.3.5.5 0 00-.3-.1h-4.6a.5.5 0 00-.4.1.5.5 0 00-.1.3v1c0 1.6.4 3 1.1 4.2a7.5 7.5 0 003.3 2.7c1.3.7 3 1 4.8 1zm21.2 0c1.8 0 3.5-.3 4.9-1a8 8 0 003.3-3.2c.7-1.4 1.1-3 1.1-4.8v-10.6c0-1.8-.4-3.4-1.1-4.7a8 8 0 00-3.3-3.2c-1.4-.7-3-1.1-4.9-1.1-1.8 0-3.5.4-4.9 1.1a8 8 0 00-3.2 3.2c-.8 1.3-1.2 2.9-1.2 4.7v10.6c0 1.8.4 3.4 1.2 4.8a8 8 0 003.2 3.1c1.4.8 3 1.2 4.9 1.2zm0-4.8c-1 0-2-.3-2.6-1a4 4 0 01-1-3v-11c0-1.2.3-2.1 1-2.9.6-.7 1.5-1 2.6-1s2 .3 2.7 1c.6.8 1 1.7 1 3v11a4 4 0 01-1 2.8c-.7.8-1.6 1.1-2.7 1.1zm18.2 4.5a.5.5 0 00.4-.1.5.5 0 00.1-.4v-10.9c0-.1 0-.2.2-.2h2.5c.1 0 .2 0 .2.2l4 11c.2.3.3.4.6.4h5c.2 0 .4-.1.4-.4a.4.4 0 000-.2l-4.6-11.4v-.3a6.9 6.9 0 003.2-2.8 8.5 8.5 0 001.2-4.5c0-1.6-.4-3-1-4.4a7.2 7.2 0 00-2.9-3c-1.2-.6-2.6-1-4.2-1h-9.7a.5.5 0 00-.4.1.5.5 0 00-.1.4v27l.1.4.4.1h4.6zm4.2-16h-3.5l-.2-.1V97s0-.2.2-.2h3.5c1 0 1.8.4 2.4 1s1 1.6 1 2.7c0 1-.4 2-1 2.6s-1.4 1-2.4 1zm20.8 16.3c2.7 0 4.9-.7 6.5-2.1a7.3 7.3 0 002.5-5.8c0-1.4-.3-2.5-.9-3.5a8.1 8.1 0 00-2.2-2.4l-3.6-2.2-.8-.5a38 38 0 01-3-1.6 5 5 0 01-1.5-1.3c-.4-.4-.5-1-.5-1.6 0-.9.3-1.5.8-2s1.3-.8 2.3-.8c1.1 0 2 .3 2.7 1 .6.6 1 1.4 1 2.4v.7l.1.3.4.2h4.6a.5.5 0 00.3-.2.5.5 0 00.1-.3v-.8c0-1.6-.3-3-1.1-4.2a7.8 7.8 0 00-3.3-2.9c-1.3-.7-3-1-4.7-1-1.7 0-3.2.3-4.6 1a7.2 7.2 0 00-3 2.6 7.4 7.4 0 00-1.2 4 7 7 0 001.1 4c.7 1.1 1.6 2 2.6 2.7a34 34 0 004 2.2l2.8 1.6c.6.4 1.1.8 1.5 1.3a2.7 2.7 0 01-.3 3.6c-.6.5-1.4.8-2.4.8a4 4 0 01-2.8-1 3 3 0 01-1-2.3v-.8a.5.5 0 00-.2-.3.5.5 0 00-.3-.1H171a.5.5 0 00-.4.1.5.5 0 00-.1.3v1c0 1.6.4 3 1.1 4.2a7.5 7.5 0 003.3 2.7c1.3.7 3 1 4.8 1z"/></defs><g fill="none" transform="translate(-30 -27)"><use fill="#000" filter="url(#a)" xlink:href="#b"/><use fill="#FFF" xlink:href="#b"/></g></svg>